<svg xmlns="http://www.w3.org/2000/svg" width="60" height="60" viewBox="0 0 60 60">
    <defs>
        <linearGradient id="a" x1="50%" x2="50%" y1="4.09%" y2="103.599%">
            <stop offset="0%" stop-color="#01C5D9" stop-opacity=".529"/>
            <stop offset="37.844%" stop-color="#02C4D9" stop-opacity=".707"/>
            <stop offset="37.844%" stop-color="#02C4D9" stop-opacity=".707"/>
            <stop offset="100%" stop-color="#05C2D8"/>
        </linearGradient>
        <linearGradient id="b" x1="50%" x2="50%" y1="-1.191%" y2="103.599%">
            <stop offset="2.553%" stop-color="#01C5D9" stop-opacity=".348"/>
            <stop offset="100%" stop-color="#05C2D8"/>
        </linearGradient>
        <linearGradient id="c" x1="50%" x2="50%" y1="97.015%" y2=".321%">
            <stop offset="0%" stop-color="#7861C8"/>
            <stop offset="100%" stop-color="#00C6D9"/>
        </linearGradient>
        <linearGradient id="d" x1="50%" x2="50%" y1=".321%" y2="97.015%">
            <stop offset="0%" stop-color="#00C6D9"/>
            <stop offset="100%" stop-color="#7861C8"/>
        </linearGradient>
    </defs>
    <g fill="none" fill-rule="evenodd">
        <path fill="url(#a)" d="M29 32.797a8.797 8.797 0 1 1 0-17.594 8.797 8.797 0 0 1 0 17.594M29 13c-6.075 0-11 4.925-11 11s4.925 11 11 11 11-4.925 11-11-4.925-11-11-11" opacity=".377"/>
        <path fill="url(#a)" d="M29 39.698c-8.67 0-15.697-7.028-15.697-15.698 0-8.67 7.027-15.698 15.697-15.698 8.67 0 15.698 7.028 15.698 15.698 0 8.67-7.028 15.698-15.698 15.698M29 6c-9.94 0-18 8.059-18 18s8.06 18 18 18c9.941 0 18-8.059 18-18S38.941 6 29 6" opacity=".5"/>
        <g fill-rule="nonzero">
            <g transform="matrix(.5 .86603 .86603 -.5 15 18.5)">
                <circle cx="12.997" cy="12" r="4" fill="url(#b)"/>
                <path fill="url(#c)" d="M19.997 2c-1.654 0-3 1.346-3 3 0 .462.114.894.301 1.285L15.75 7.833a4.964 4.964 0 0 0-5.506 0L8.43 6.019A3.96 3.96 0 0 0 8.997 4c0-2.206-1.794-4-4-4s-4 1.794-4 4 1.794 4 4 4c.74 0 1.424-.215 2.019-.567L8.83 9.247a4.969 4.969 0 0 0 0 5.507l-1.321 1.321a1.946 1.946 0 0 0-.51-.075c-1.103 0-2 .897-2 2s.897 2 2 2 2-.897 2-2c0-.178-.031-.348-.075-.512l1.322-1.321c.525.348.754.602 1.754.732v2.285c-1 .414-2.001 1.514-2.001 2.816 0 1.654 1.345 3 2.999 3a3.005 3.005 0 0 0 3.001-3c0-1.302-.999-2.402-1.999-2.816v-2.285c1-.13 1.227-.384 1.752-.732l1.321 1.322a1.966 1.966 0 0 0-.075.511c0 1.103.897 2 2 2s2-.897 2-2-.898-2-2-2a1.96 1.96 0 0 0-.511.075l-1.322-1.322a4.969 4.969 0 0 0 0-5.506l1.548-1.548c.39.187.823.301 1.284.301 1.654 0 3-1.346 3-3s-1.345-3-3-3zm-17 2c0-1.103.897-2 2-2s2 .897 2 2-.897 2-2 2-2-.897-2-2zm10 19a1 1 0 1 1 0-2 1 1 0 0 1 0 2zm0-8c-1.654 0-3-1.346-3-3s1.346-3 3-3 3 1.346 3 3-1.345 3-3 3zm7-9a1 1 0 1 1 0-2 1 1 0 0 1 0 2z"/>
            </g>
            <path fill="url(#d)" d="M1.815 14.011C5.275 5.664 14.308 0 24.49 0c9.65 0 18.298 5.05 22.102 12.7 1.94 3.701 2.674 7.395 1.897 9.94-.486 1.591-.478 1.645.693 3.569a199.71 199.71 0 0 1 3.814 6.64c.235.434.345.925.345 1.45 0 1.589-1.214 2.91-2.875 3.054h-.311l-2.374.013c.012 3.323.034 7.812.052 10.235l-.001.215a4.563 4.563 0 0 1-4.445 4.557l-6.594.007c-2.423 0-3.297.644-3.678 2.572L32.448 58H20.793l-12.717-.067v-14.15c-1.026-2.26-1.761-3.748-2.147-4.376C1.107 32.785-.827 26.373.323 19.427c.065-.536.15-1.033.25-1.492.14-.64.284-1.106.395-1.391.221-.852.504-1.695.847-2.533zm29.343 40.533c.571-2.891 2.299-4.164 5.635-4.164l6.564-.007a2.559 2.559 0 0 0 2.476-2.563l.001-.207c-.02-2.666-.045-7.863-.056-11.228l-.003-.998.998-.005 3.376-.018.227.003c.544-.048.966-.507.966-1.059 0-.21-.037-.375-.102-.495a197.84 197.84 0 0 0-3.765-6.555c-1.457-2.394-1.557-3.033-.898-5.192.597-1.957-.037-5.149-1.765-8.446C41.345 6.64 33.402 2 24.492 2 15.094 2 6.802 7.2 3.663 14.773c-.316.77-.575 1.548-.775 2.33a8.548 8.548 0 0 0-.362 1.259c-.087.398-.161.834-.225 1.35-1.06 6.41.716 12.3 5.286 18.58.499.806 1.291 2.415 2.399 4.862l.09.196v12.593L20.798 56h10.04l.32-1.456z" transform="matrix(-1 0 0 1 56.342 0)"/>
        </g>
    </g>
</svg>
