<svg xmlns="http://www.w3.org/2000/svg" width="60" height="60" viewBox="0 0 60 60">
    <defs>
        <linearGradient id="a" x1="50%" x2="50%" y1="-1.191%" y2="103.599%">
            <stop offset="2.553%" stop-color="#01C5D9" stop-opacity=".348"/>
            <stop offset="100%" stop-color="#05C2D8"/>
        </linearGradient>
        <linearGradient id="b" x1="50%" x2="50%" y1="1.485%" y2="103.599%">
            <stop offset="0%" stop-color="#01C5D9" stop-opacity=".348"/>
            <stop offset="100%" stop-color="#05C2D8"/>
        </linearGradient>
        <linearGradient id="c" x1="50%" x2="50%" y1=".321%" y2="97.015%">
            <stop offset="0%" stop-color="#00C6D9"/>
            <stop offset="100%" stop-color="#7861C8"/>
        </linearGradient>
        <linearGradient id="d" x1="50%" x2="50%" y1="-71.212%" y2="528.753%">
            <stop offset="0%" stop-color="#03C3D8"/>
            <stop offset="100%" stop-color="#C822FF"/>
        </linearGradient>
    </defs>
    <g fill="none" fill-rule="nonzero">
        <path fill="url(#a)" d="M49.91 27A5.99 5.99 0 0 1 44 32a5.99 5.99 0 0 1-5.91-5h11.82z" transform="translate(2)"/>
        <path fill="url(#b)" d="M24 20v10c-2.21 0-4 1.79-4 4H10c0-7.73 6.27-14 14-14z" transform="translate(2)"/>
        <path fill="url(#c)" d="M54 26c1.103 0 2-.897 2-2v-2c0-1.103-.897-2-2-2H43.483A24.003 24.003 0 0 0 24 10C10.767 10 0 20.767 0 34s10.767 24 24 24a23.986 23.986 0 0 0 17.878-8H54c1.103 0 2-.897 2-2v-2c0-1.103-.897-2-2-2 0-3.962-2.321-7.382-5.67-9 3.349-1.618 5.67-5.038 5.67-9zm0-2H34v-2h20v2zM32 46v2a2 2 0 0 0 .876 1.653A17.81 17.81 0 0 1 24 52c-9.587 0-17.426-7.541-17.949-17h13.05A5.009 5.009 0 0 0 24 39c2.757 0 5-2.243 5-5a5.01 5.01 0 0 0-4-4.899V16.05A17.732 17.732 0 0 1 35.287 20H34c-1.103 0-2 .897-2 2v2c0 1.103.897 2 2 2 0 3.962 2.322 7.382 5.67 9-3.348 1.618-5.67 5.038-5.67 9-1.103 0-2 .897-2 2zm-8-15c1.654 0 3 1.346 3 3s-1.346 3-3 3-3-1.346-3-3 1.346-3 3-3zm-1-1.899A5.016 5.016 0 0 0 19.101 33H6.051C6.556 23.874 13.874 16.556 23 16.051v13.05zM24 56C11.869 56 2 46.131 2 34s9.869-22 22-22a22.003 22.003 0 0 1 16.958 8h-2.701C34.512 16.19 29.35 14 24 14 12.972 14 4 22.972 4 34s8.972 20 20 20c4.372 0 8.504-1.389 11.983-4h3.113A21.984 21.984 0 0 1 24 56zm30-8H34v-2h20v2zm-2-4H36c0-4.072 3.06-7.436 7-7.931V38h2v-1.931c3.94.495 7 3.859 7 7.931zm-7-10.069V32h-2v1.931c-3.94-.495-7-3.859-7-7.931h16c0 4.072-3.06 7.436-7 7.931z" transform="translate(2)"/>
        <path fill="url(#d)" d="M45.949 14.536L37.465 6.05l-1.414 1.414 8.484 8.486zM11.949 7.464L10.535 6.05l-8.484 8.486 1.414 1.414zM24 8c2.206 0 4-1.794 4-4s-1.794-4-4-4-4 1.794-4 4 1.794 4 4 4zm0-6c1.103 0 2 .897 2 2s-.897 2-2 2-2-.897-2-2 .897-2 2-2z" transform="translate(2)"/>
    </g>
</svg>
